<?xml version="1.0" encoding="UTF-8"?>
<svg id="Capa_1" data-name="Capa 1" xmlns="http://www.w3.org/2000/svg" viewBox="0 0 566.93 153.04">
  <defs>
    <style>
      .cls-1 {
        fill: #e31c19;
      }
    </style>
  </defs>
  <polygon class="cls-1" points="120.09 0 120.09 119.9 99.91 119.9 99.91 43.23 81.08 43.23 81.08 119.9 0 119.9 .26 .07 120.09 0"/>
  <g>
    <path d="m566.9,83.16c1.21-39.26-33.03-39.67-33.03-39.67h-43.9v109.55h20.14v-33.43h23.76c35.24-1,33.03-36.45,33.03-36.45Zm-33.78,20.34l-22.93.11.24-43.44,20.75-.12s12.37.62,13.6,14.56l.12,16.14s0,9.47-11.78,12.75Z"/>
    <path d="m445.62,43.46l-46.24-.12v14.93h38.59s12.62-.48,13.35,11.28l.13,3.76h-35.32s-19.79.37-21.59,18.7v12.62s1.21,11.28,16.86,15.05l60.32-.13v-52.07s0-23.18-26.1-24.03Zm5.47,61.9l-28.52-.12s-7.89.36-7.4-5.34l-.13-4.98s0-6.06,6.31-6.55l29.85.12-.12,16.87Z"/>
    <path d="m383.7,120.37v-16.5l-28.99.13s-17.96-1.34-17.24-17.23v-9.85s.24-14.8,16.14-16.74l29.86-.12v-16.5h-33.25s-31.07.6-34.11,32.03c0,0-1.2,12.5.37,16.88,0,0,5.46,27.55,37.73,28.16l29.49-.25Z"/>
    <path d="m276.06,43.67l-46.24-.12v14.93h38.59s12.63-.48,13.35,11.28l.13,3.76h-35.32s-19.77.37-21.6,18.7v12.62s1.22,11.28,16.87,15.05l60.31-.12v-52.06s0-23.18-26.09-24.03Zm5.47,61.88l-28.52-.12s-7.89.38-7.41-5.34l-.12-4.97s0-6.07,6.31-6.55l29.85.13-.11,16.86Z"/>
    <path d="m140.43,43.02v77.06l19.87.03.09-60.05h22.09s7.05,0,7.29,7.29l.48,52.66h20.88l.12-49.88s.13-26.45-29.73-27.31l-41.08.2Z"/>
  </g>
</svg>